solid
 facet normal -1.000000e+00 -0.000000e+00 -0.000000e+00
   outer loop
     vertex -1.600000e+00  1.250000e+00  1.200000e+00
     vertex -1.600000e+00  1.250000e+00  0.000000e+00
     vertex -1.600000e+00 -1.250000e+00  1.200000e+00
   endloop
 endfacet
 facet normal -1.000000e+00  0.000000e+00  0.000000e+00
   outer loop
     vertex -1.600000e+00  1.250000e+00  0.000000e+00
     vertex -1.600000e+00 -1.250000e+00  0.000000e+00
     vertex -1.600000e+00 -1.250000e+00  1.200000e+00
   endloop
 endfacet
 facet normal  1.000000e+00 -0.000000e+00  0.000000e+00
   outer loop
     vertex -1.000000e+00 -1.250000e+00  1.200000e+00
     vertex -1.000000e+00  1.250000e+00  0.000000e+00
     vertex -1.000000e+00  1.250000e+00  1.200000e+00
   endloop
 endfacet
 facet normal  1.000000e+00 -0.000000e+00  0.000000e+00
   outer loop
     vertex -1.000000e+00 -1.250000e+00  1.200000e+00
     vertex -1.000000e+00 -1.250000e+00  0.000000e+00
     vertex -1.000000e+00  1.250000e+00  0.000000e+00
   endloop
 endfacet
 facet normal  0.000000e+00 -1.000000e+00  0.000000e+00
   outer loop
     vertex -1.600000e+00 -1.250000e+00  0.000000e+00
     vertex -1.000000e+00 -1.250000e+00  0.000000e+00
     vertex -1.600000e+00 -1.250000e+00  1.200000e+00
   endloop
 endfacet
 facet normal  0.000000e+00 -1.000000e+00  0.000000e+00
   outer loop
     vertex -1.600000e+00 -1.250000e+00  1.200000e+00
     vertex -1.000000e+00 -1.250000e+00  0.000000e+00
     vertex -1.000000e+00 -1.250000e+00  1.200000e+00
   endloop
 endfacet
 facet normal  0.000000e+00  1.000000e+00  0.000000e+00
   outer loop
     vertex -1.600000e+00  1.250000e+00  1.200000e+00
     vertex -1.000000e+00  1.250000e+00  0.000000e+00
     vertex -1.600000e+00  1.250000e+00  0.000000e+00
   endloop
 endfacet
 facet normal  0.000000e+00  1.000000e+00  0.000000e+00
   outer loop
     vertex -1.000000e+00  1.250000e+00  1.200000e+00
     vertex -1.000000e+00  1.250000e+00  0.000000e+00
     vertex -1.600000e+00  1.250000e+00  1.200000e+00
   endloop
 endfacet
 facet normal  0.000000e+00  0.000000e+00 -1.000000e+00
   outer loop
     vertex -1.000000e+00 -1.250000e+00  0.000000e+00
     vertex -1.600000e+00 -1.250000e+00  0.000000e+00
     vertex -1.600000e+00  1.250000e+00  0.000000e+00
   endloop
 endfacet
 facet normal  0.000000e+00  0.000000e+00 -1.000000e+00
   outer loop
     vertex -1.000000e+00 -1.250000e+00  0.000000e+00
     vertex -1.600000e+00  1.250000e+00  0.000000e+00
     vertex -1.000000e+00  1.250000e+00  0.000000e+00
   endloop
 endfacet
 facet normal -0.000000e+00  0.000000e+00  1.000000e+00
   outer loop
     vertex -1.600000e+00  1.250000e+00  1.200000e+00
     vertex -1.600000e+00 -1.250000e+00  1.200000e+00
     vertex -1.000000e+00 -1.250000e+00  1.200000e+00
   endloop
 endfacet
 facet normal  0.000000e+00  0.000000e+00  1.000000e+00
   outer loop
     vertex -1.000000e+00  1.250000e+00  1.200000e+00
     vertex -1.600000e+00  1.250000e+00  1.200000e+00
     vertex -1.000000e+00 -1.250000e+00  1.200000e+00
   endloop
 endfacet
 facet normal -1.000000e+00 -0.000000e+00 -0.000000e+00
   outer loop
     vertex  1.000000e+00  1.250000e+00  1.200000e+00
     vertex  1.000000e+00  1.250000e+00  0.000000e+00
     vertex  1.000000e+00 -1.250000e+00  1.200000e+00
   endloop
 endfacet
 facet normal -1.000000e+00  0.000000e+00  0.000000e+00
   outer loop
     vertex  1.000000e+00  1.250000e+00  0.000000e+00
     vertex  1.000000e+00 -1.250000e+00  0.000000e+00
     vertex  1.000000e+00 -1.250000e+00  1.200000e+00
   endloop
 endfacet
 facet normal  1.000000e+00 -0.000000e+00  0.000000e+00
   outer loop
     vertex  1.600000e+00 -1.250000e+00  1.200000e+00
     vertex  1.600000e+00  1.250000e+00  0.000000e+00
     vertex  1.600000e+00  1.250000e+00  1.200000e+00
   endloop
 endfacet
 facet normal  1.000000e+00 -0.000000e+00  0.000000e+00
   outer loop
     vertex  1.600000e+00 -1.250000e+00  1.200000e+00
     vertex  1.600000e+00 -1.250000e+00  0.000000e+00
     vertex  1.600000e+00  1.250000e+00  0.000000e+00
   endloop
 endfacet
 facet normal  0.000000e+00 -1.000000e+00  0.000000e+00
   outer loop
     vertex  1.000000e+00 -1.250000e+00  0.000000e+00
     vertex  1.600000e+00 -1.250000e+00  0.000000e+00
     vertex  1.000000e+00 -1.250000e+00  1.200000e+00
   endloop
 endfacet
 facet normal  0.000000e+00 -1.000000e+00  0.000000e+00
   outer loop
     vertex  1.000000e+00 -1.250000e+00  1.200000e+00
     vertex  1.600000e+00 -1.250000e+00  0.000000e+00
     vertex  1.600000e+00 -1.250000e+00  1.200000e+00
   endloop
 endfacet
 facet normal  0.000000e+00  1.000000e+00  0.000000e+00
   outer loop
     vertex  1.000000e+00  1.250000e+00  1.200000e+00
     vertex  1.600000e+00  1.250000e+00  0.000000e+00
     vertex  1.000000e+00  1.250000e+00  0.000000e+00
   endloop
 endfacet
 facet normal  0.000000e+00  1.000000e+00  0.000000e+00
   outer loop
     vertex  1.600000e+00  1.250000e+00  1.200000e+00
     vertex  1.600000e+00  1.250000e+00  0.000000e+00
     vertex  1.000000e+00  1.250000e+00  1.200000e+00
   endloop
 endfacet
 facet normal  0.000000e+00  0.000000e+00 -1.000000e+00
   outer loop
     vertex  1.600000e+00 -1.250000e+00  0.000000e+00
     vertex  1.000000e+00 -1.250000e+00  0.000000e+00
     vertex  1.000000e+00  1.250000e+00  0.000000e+00
   endloop
 endfacet
 facet normal  0.000000e+00  0.000000e+00 -1.000000e+00
   outer loop
     vertex  1.600000e+00 -1.250000e+00  0.000000e+00
     vertex  1.000000e+00  1.250000e+00  0.000000e+00
     vertex  1.600000e+00  1.250000e+00  0.000000e+00
   endloop
 endfacet
 facet normal -0.000000e+00  0.000000e+00  1.000000e+00
   outer loop
     vertex  1.000000e+00  1.250000e+00  1.200000e+00
     vertex  1.000000e+00 -1.250000e+00  1.200000e+00
     vertex  1.600000e+00 -1.250000e+00  1.200000e+00
   endloop
 endfacet
 facet normal  0.000000e+00  0.000000e+00  1.000000e+00
   outer loop
     vertex  1.600000e+00  1.250000e+00  1.200000e+00
     vertex  1.000000e+00  1.250000e+00  1.200000e+00
     vertex  1.600000e+00 -1.250000e+00  1.200000e+00
   endloop
 endfacet
 facet normal -1.000000e+00 -0.000000e+00 -0.000000e+00
   outer loop
     vertex -1.000000e+00  1.225000e+00  1.188000e+00
     vertex -1.000000e+00  1.225000e+00  1.200000e-02
     vertex -1.000000e+00 -1.225000e+00  1.188000e+00
   endloop
 endfacet
 facet normal -1.000000e+00  0.000000e+00  0.000000e+00
   outer loop
     vertex -1.000000e+00  1.225000e+00  1.200000e-02
     vertex -1.000000e+00 -1.225000e+00  1.200000e-02
     vertex -1.000000e+00 -1.225000e+00  1.188000e+00
   endloop
 endfacet
 facet normal  1.000000e+00 -0.000000e+00  0.000000e+00
   outer loop
     vertex  1.000000e+00 -1.225000e+00  1.188000e+00
     vertex  1.000000e+00  1.225000e+00  1.200000e-02
     vertex  1.000000e+00  1.225000e+00  1.188000e+00
   endloop
 endfacet
 facet normal  1.000000e+00 -0.000000e+00  0.000000e+00
   outer loop
     vertex  1.000000e+00 -1.225000e+00  1.188000e+00
     vertex  1.000000e+00 -1.225000e+00  1.200000e-02
     vertex  1.000000e+00  1.225000e+00  1.200000e-02
   endloop
 endfacet
 facet normal  0.000000e+00 -1.000000e+00  0.000000e+00
   outer loop
     vertex -1.000000e+00 -1.225000e+00  1.188000e+00
     vertex -1.000000e+00 -1.225000e+00  1.200000e-02
     vertex  1.000000e+00 -1.225000e+00  1.200000e-02
   endloop
 endfacet
 facet normal  0.000000e+00 -1.000000e+00  0.000000e+00
   outer loop
     vertex -1.000000e+00 -1.225000e+00  1.188000e+00
     vertex  1.000000e+00 -1.225000e+00  1.200000e-02
     vertex  1.000000e+00 -1.225000e+00  1.188000e+00
   endloop
 endfacet
 facet normal  0.000000e+00  1.000000e+00 -0.000000e+00
   outer loop
     vertex  1.000000e+00  1.225000e+00  1.200000e-02
     vertex -1.000000e+00  1.225000e+00  1.200000e-02
     vertex -1.000000e+00  1.225000e+00  1.188000e+00
   endloop
 endfacet
 facet normal  0.000000e+00  1.000000e+00  0.000000e+00
   outer loop
     vertex  1.000000e+00  1.225000e+00  1.188000e+00
     vertex  1.000000e+00  1.225000e+00  1.200000e-02
     vertex -1.000000e+00  1.225000e+00  1.188000e+00
   endloop
 endfacet
 facet normal  0.000000e+00  0.000000e+00 -1.000000e+00
   outer loop
     vertex  1.000000e+00 -1.225000e+00  1.200000e-02
     vertex -1.000000e+00 -1.225000e+00  1.200000e-02
     vertex -1.000000e+00  1.225000e+00  1.200000e-02
   endloop
 endfacet
 facet normal  0.000000e+00  0.000000e+00 -1.000000e+00
   outer loop
     vertex  1.000000e+00 -1.225000e+00  1.200000e-02
     vertex -1.000000e+00  1.225000e+00  1.200000e-02
     vertex  1.000000e+00  1.225000e+00  1.200000e-02
   endloop
 endfacet
 facet normal -0.000000e+00  0.000000e+00  1.000000e+00
   outer loop
     vertex -1.000000e+00  1.225000e+00  1.188000e+00
     vertex -1.000000e+00 -1.225000e+00  1.188000e+00
     vertex  1.000000e+00 -1.225000e+00  1.188000e+00
   endloop
 endfacet
 facet normal  0.000000e+00  0.000000e+00  1.000000e+00
   outer loop
     vertex  1.000000e+00  1.225000e+00  1.188000e+00
     vertex -1.000000e+00  1.225000e+00  1.188000e+00
     vertex  1.000000e+00 -1.225000e+00  1.188000e+00
   endloop
 endfacet
endsolid
