solid
 facet normal -9.989462e-01  0.000000e+00  4.589753e-02
   outer loop
     vertex -1.500000e+00 -8.000000e-01  8.750000e-01
     vertex -1.468974e+00 -7.689744e-01  1.550263e+00
     vertex -1.500000e+00  8.000000e-01  8.750000e-01
   endloop
 endfacet
 facet normal -9.989462e-01  0.000000e+00  4.589753e-02
   outer loop
     vertex -1.500000e+00  8.000000e-01  8.750000e-01
     vertex -1.468974e+00 -7.689744e-01  1.550263e+00
     vertex -1.468974e+00  7.689744e-01  1.550263e+00
   endloop
 endfacet
 facet normal -1.283125e-16 -9.989462e-01  4.589753e-02
   outer loop
     vertex -1.207500e+00 -7.575000e-01  1.800000e+00
     vertex -1.468974e+00 -7.689744e-01  1.550263e+00
     vertex -1.500000e+00 -8.000000e-01  8.750000e-01
   endloop
 endfacet
 facet normal  0.000000e+00 -9.989462e-01  4.589753e-02
   outer loop
     vertex  1.500000e+00 -8.000000e-01  8.750000e-01
     vertex -1.207500e+00 -7.575000e-01  1.800000e+00
     vertex -1.500000e+00 -8.000000e-01  8.750000e-01
   endloop
 endfacet
 facet normal  0.000000e+00 -9.989462e-01  4.589753e-02
   outer loop
     vertex  1.457500e+00 -7.575000e-01  1.800000e+00
     vertex -1.207500e+00 -7.575000e-01  1.800000e+00
     vertex  1.500000e+00 -8.000000e-01  8.750000e-01
   endloop
 endfacet
 facet normal -6.906890e-01  0.000000e+00  7.231520e-01
   outer loop
     vertex -1.468974e+00 -7.689744e-01  1.550263e+00
     vertex -1.207500e+00 -7.575000e-01  1.800000e+00
     vertex -1.207500e+00  7.575000e-01  1.800000e+00
   endloop
 endfacet
 facet normal -6.906890e-01  0.000000e+00  7.231520e-01
   outer loop
     vertex -1.468974e+00  7.689744e-01  1.550263e+00
     vertex -1.468974e+00 -7.689744e-01  1.550263e+00
     vertex -1.207500e+00  7.575000e-01  1.800000e+00
   endloop
 endfacet
 facet normal -1.000000e+00  0.000000e+00  0.000000e+00
   outer loop
     vertex -1.500000e+00  8.000000e-01  8.650000e-01
     vertex -1.500000e+00 -8.000000e-01  8.650000e-01
     vertex -1.500000e+00 -8.000000e-01  8.750000e-01
   endloop
 endfacet
 facet normal -1.000000e+00 -0.000000e+00 -0.000000e+00
   outer loop
     vertex -1.500000e+00  8.000000e-01  8.750000e-01
     vertex -1.500000e+00  8.000000e-01  8.650000e-01
     vertex -1.500000e+00 -8.000000e-01  8.750000e-01
   endloop
 endfacet
 facet normal -1.339583e-15  9.989462e-01  4.589753e-02
   outer loop
     vertex -1.500000e+00  8.000000e-01  8.750000e-01
     vertex -1.468974e+00  7.689744e-01  1.550263e+00
     vertex -1.207500e+00  7.575000e-01  1.800000e+00
   endloop
 endfacet
 facet normal  0.000000e+00  9.989462e-01  4.589753e-02
   outer loop
     vertex -1.500000e+00  8.000000e-01  8.750000e-01
     vertex -1.207500e+00  7.575000e-01  1.800000e+00
     vertex  1.500000e+00  8.000000e-01  8.750000e-01
   endloop
 endfacet
 facet normal -0.000000e+00  9.989462e-01  4.589753e-02
   outer loop
     vertex  1.500000e+00  8.000000e-01  8.750000e-01
     vertex -1.207500e+00  7.575000e-01  1.800000e+00
     vertex  1.457500e+00  7.575000e-01  1.800000e+00
   endloop
 endfacet
 facet normal  0.000000e+00 -1.000000e+00  0.000000e+00
   outer loop
     vertex -1.500000e+00 -8.000000e-01  8.650000e-01
     vertex  1.500000e+00 -8.000000e-01  8.650000e-01
     vertex  1.500000e+00 -8.000000e-01  8.750000e-01
   endloop
 endfacet
 facet normal  0.000000e+00 -1.000000e+00  0.000000e+00
   outer loop
     vertex -1.500000e+00 -8.000000e-01  8.750000e-01
     vertex -1.500000e+00 -8.000000e-01  8.650000e-01
     vertex  1.500000e+00 -8.000000e-01  8.750000e-01
   endloop
 endfacet
 facet normal -0.000000e+00  0.000000e+00  1.000000e+00
   outer loop
     vertex  1.457500e+00  7.575000e-01  1.800000e+00
     vertex -1.207500e+00 -7.575000e-01  1.800000e+00
     vertex  1.457500e+00 -7.575000e-01  1.800000e+00
   endloop
 endfacet
 facet normal  0.000000e+00  0.000000e+00  1.000000e+00
   outer loop
     vertex  1.457500e+00  7.575000e-01  1.800000e+00
     vertex -1.207500e+00  7.575000e-01  1.800000e+00
     vertex -1.207500e+00 -7.575000e-01  1.800000e+00
   endloop
 endfacet
 facet normal  9.989462e-01  0.000000e+00  4.589753e-02
   outer loop
     vertex  1.457500e+00  7.575000e-01  1.800000e+00
     vertex  1.457500e+00 -7.575000e-01  1.800000e+00
     vertex  1.500000e+00 -8.000000e-01  8.750000e-01
   endloop
 endfacet
 facet normal  9.989462e-01 -0.000000e+00  4.589753e-02
   outer loop
     vertex  1.457500e+00  7.575000e-01  1.800000e+00
     vertex  1.500000e+00 -8.000000e-01  8.750000e-01
     vertex  1.500000e+00  8.000000e-01  8.750000e-01
   endloop
 endfacet
 facet normal -9.984604e-01 -0.000000e+00 -5.547002e-02
   outer loop
     vertex -1.457500e+00  7.575000e-01  1.000000e-01
     vertex -1.457500e+00 -7.575000e-01  1.000000e-01
     vertex -1.500000e+00 -8.000000e-01  8.650000e-01
   endloop
 endfacet
 facet normal -9.984604e-01  0.000000e+00 -5.547002e-02
   outer loop
     vertex -1.457500e+00  7.575000e-01  1.000000e-01
     vertex -1.500000e+00 -8.000000e-01  8.650000e-01
     vertex -1.500000e+00  8.000000e-01  8.650000e-01
   endloop
 endfacet
 facet normal  0.000000e+00  1.000000e+00  0.000000e+00
   outer loop
     vertex  1.500000e+00  8.000000e-01  8.750000e-01
     vertex  1.500000e+00  8.000000e-01  8.650000e-01
     vertex -1.500000e+00  8.000000e-01  8.650000e-01
   endloop
 endfacet
 facet normal  0.000000e+00  1.000000e+00 -0.000000e+00
   outer loop
     vertex  1.500000e+00  8.000000e-01  8.750000e-01
     vertex -1.500000e+00  8.000000e-01  8.650000e-01
     vertex -1.500000e+00  8.000000e-01  8.750000e-01
   endloop
 endfacet
 facet normal  1.000000e+00 -0.000000e+00  0.000000e+00
   outer loop
     vertex  1.500000e+00 -8.000000e-01  8.750000e-01
     vertex  1.500000e+00 -8.000000e-01  8.650000e-01
     vertex  1.500000e+00  8.000000e-01  8.650000e-01
   endloop
 endfacet
 facet normal  1.000000e+00 -0.000000e+00  0.000000e+00
   outer loop
     vertex  1.500000e+00 -8.000000e-01  8.750000e-01
     vertex  1.500000e+00  8.000000e-01  8.650000e-01
     vertex  1.500000e+00  8.000000e-01  8.750000e-01
   endloop
 endfacet
 facet normal  0.000000e+00 -9.984604e-01 -5.547002e-02
   outer loop
     vertex -1.500000e+00 -8.000000e-01  8.650000e-01
     vertex -1.457500e+00 -7.575000e-01  1.000000e-01
     vertex  1.457500e+00 -7.575000e-01  1.000000e-01
   endloop
 endfacet
 facet normal -0.000000e+00 -9.984604e-01 -5.547002e-02
   outer loop
     vertex  1.500000e+00 -8.000000e-01  8.650000e-01
     vertex -1.500000e+00 -8.000000e-01  8.650000e-01
     vertex  1.457500e+00 -7.575000e-01  1.000000e-01
   endloop
 endfacet
 facet normal  0.000000e+00  0.000000e+00 -1.000000e+00
   outer loop
     vertex -1.457500e+00 -7.575000e-01  1.000000e-01
     vertex -1.457500e+00  7.575000e-01  1.000000e-01
     vertex  1.457500e+00  7.575000e-01  1.000000e-01
   endloop
 endfacet
 facet normal  0.000000e+00  0.000000e+00 -1.000000e+00
   outer loop
     vertex  1.457500e+00 -7.575000e-01  1.000000e-01
     vertex -1.457500e+00 -7.575000e-01  1.000000e-01
     vertex  1.457500e+00  7.575000e-01  1.000000e-01
   endloop
 endfacet
 facet normal  0.000000e+00  9.984604e-01 -5.547002e-02
   outer loop
     vertex  1.457500e+00  7.575000e-01  1.000000e-01
     vertex -1.457500e+00  7.575000e-01  1.000000e-01
     vertex -1.500000e+00  8.000000e-01  8.650000e-01
   endloop
 endfacet
 facet normal  0.000000e+00  9.984604e-01 -5.547002e-02
   outer loop
     vertex  1.457500e+00  7.575000e-01  1.000000e-01
     vertex -1.500000e+00  8.000000e-01  8.650000e-01
     vertex  1.500000e+00  8.000000e-01  8.650000e-01
   endloop
 endfacet
 facet normal  9.984604e-01  0.000000e+00 -5.547002e-02
   outer loop
     vertex  1.500000e+00 -8.000000e-01  8.650000e-01
     vertex  1.457500e+00 -7.575000e-01  1.000000e-01
     vertex  1.457500e+00  7.575000e-01  1.000000e-01
   endloop
 endfacet
 facet normal  9.984604e-01  0.000000e+00 -5.547002e-02
   outer loop
     vertex  1.500000e+00  8.000000e-01  8.650000e-01
     vertex  1.500000e+00 -8.000000e-01  8.650000e-01
     vertex  1.457500e+00  7.575000e-01  1.000000e-01
   endloop
 endfacet
 facet normal  0.000000e+00 -1.000000e+00  0.000000e+00
   outer loop
     vertex -1.525882e+00 -6.000000e-01  3.407417e-03
     vertex -1.500000e+00 -6.000000e-01 -1.387779e-17
     vertex -1.500000e+00 -6.000000e-01  1.000000e-01
   endloop
 endfacet
 facet normal  0.000000e+00 -1.000000e+00  0.000000e+00
   outer loop
     vertex -1.550000e+00 -6.000000e-01  1.339746e-02
     vertex -1.525882e+00 -6.000000e-01  3.407417e-03
     vertex -1.500000e+00 -6.000000e-01  1.000000e-01
   endloop
 endfacet
 facet normal  0.000000e+00 -1.000000e+00  0.000000e+00
   outer loop
     vertex -1.570711e+00 -6.000000e-01  2.928932e-02
     vertex -1.550000e+00 -6.000000e-01  1.339746e-02
     vertex -1.500000e+00 -6.000000e-01  1.000000e-01
   endloop
 endfacet
 facet normal  0.000000e+00 -1.000000e+00  0.000000e+00
   outer loop
     vertex -1.586603e+00 -6.000000e-01  5.000000e-02
     vertex -1.570711e+00 -6.000000e-01  2.928932e-02
     vertex -1.500000e+00 -6.000000e-01  1.000000e-01
   endloop
 endfacet
 facet normal  0.000000e+00 -1.000000e+00  0.000000e+00
   outer loop
     vertex -1.596593e+00 -6.000000e-01  7.411810e-02
     vertex -1.586603e+00 -6.000000e-01  5.000000e-02
     vertex -1.500000e+00 -6.000000e-01  1.000000e-01
   endloop
 endfacet
 facet normal  0.000000e+00 -1.000000e+00  0.000000e+00
   outer loop
     vertex -1.600000e+00 -6.000000e-01  1.000000e-01
     vertex -1.596593e+00 -6.000000e-01  7.411810e-02
     vertex -1.500000e+00 -6.000000e-01  1.000000e-01
   endloop
 endfacet
 facet normal  0.000000e+00 -1.000000e+00 -0.000000e+00
   outer loop
     vertex -1.596593e+00 -6.000000e-01  7.908819e-01
     vertex -1.600000e+00 -6.000000e-01  7.650000e-01
     vertex -1.500000e+00 -6.000000e-01  7.650000e-01
   endloop
 endfacet
 facet normal  0.000000e+00 -1.000000e+00 -0.000000e+00
   outer loop
     vertex -1.586603e+00 -6.000000e-01  8.150000e-01
     vertex -1.596593e+00 -6.000000e-01  7.908819e-01
     vertex -1.500000e+00 -6.000000e-01  7.650000e-01
   endloop
 endfacet
 facet normal  0.000000e+00 -1.000000e+00 -0.000000e+00
   outer loop
     vertex -1.570711e+00 -6.000000e-01  8.357107e-01
     vertex -1.586603e+00 -6.000000e-01  8.150000e-01
     vertex -1.500000e+00 -6.000000e-01  7.650000e-01
   endloop
 endfacet
 facet normal  0.000000e+00 -1.000000e+00  0.000000e+00
   outer loop
     vertex -1.600000e+00 -6.000000e-01  7.650000e-01
     vertex -1.600000e+00 -6.000000e-01  1.000000e-01
     vertex -1.500000e+00 -6.000000e-01  7.650000e-01
   endloop
 endfacet
 facet normal  0.000000e+00 -1.000000e+00  0.000000e+00
   outer loop
     vertex -1.600000e+00 -6.000000e-01  1.000000e-01
     vertex -1.500000e+00 -6.000000e-01  1.000000e-01
     vertex -1.500000e+00 -6.000000e-01  7.650000e-01
   endloop
 endfacet
 facet normal  0.000000e+00 -1.000000e+00  0.000000e+00
   outer loop
     vertex -1.570711e+00 -6.000000e-01  8.357107e-01
     vertex -1.500000e+00 -6.000000e-01  7.650000e-01
     vertex -1.550000e+00 -6.000000e-01  8.516025e-01
   endloop
 endfacet
 facet normal  0.000000e+00 -1.000000e+00  0.000000e+00
   outer loop
     vertex -1.550000e+00 -6.000000e-01  8.516025e-01
     vertex -1.500000e+00 -6.000000e-01  7.650000e-01
     vertex -1.525882e+00 -6.000000e-01  8.615926e-01
   endloop
 endfacet
 facet normal  0.000000e+00 -1.000000e+00  0.000000e+00
   outer loop
     vertex -1.500000e+00 -6.000000e-01 -1.387779e-17
     vertex -7.500000e-01 -6.000000e-01  0.000000e+00
     vertex -7.500000e-01 -6.000000e-01  1.000000e-01
   endloop
 endfacet
 facet normal  0.000000e+00 -1.000000e+00  0.000000e+00
   outer loop
     vertex -1.500000e+00 -6.000000e-01  1.000000e-01
     vertex -1.500000e+00 -6.000000e-01 -1.387779e-17
     vertex -7.500000e-01 -6.000000e-01  1.000000e-01
   endloop
 endfacet
 facet normal  0.000000e+00 -1.000000e+00  0.000000e+00
   outer loop
     vertex -1.525882e+00 -6.000000e-01  8.615926e-01
     vertex -1.500000e+00 -6.000000e-01  7.650000e-01
     vertex -1.500000e+00 -6.000000e-01  8.650000e-01
   endloop
 endfacet
 facet normal  0.000000e+00 -1.000000e+00  0.000000e+00
   outer loop
     vertex -1.500000e+00 -6.000000e-01  7.650000e-01
     vertex -8.500000e-01 -6.000000e-01  7.650000e-01
     vertex -8.500000e-01 -6.000000e-01  8.650000e-01
   endloop
 endfacet
 facet normal  0.000000e+00 -1.000000e+00  0.000000e+00
   outer loop
     vertex -1.500000e+00 -6.000000e-01  8.650000e-01
     vertex -1.500000e+00 -6.000000e-01  7.650000e-01
     vertex -8.500000e-01 -6.000000e-01  8.650000e-01
   endloop
 endfacet
 facet normal -0.000000e+00  0.000000e+00  1.000000e+00
   outer loop
     vertex -1.500000e+00  6.000000e-01  8.650000e-01
     vertex -1.500000e+00 -6.000000e-01  8.650000e-01
     vertex -8.500000e-01 -6.000000e-01  8.650000e-01
   endloop
 endfacet
 facet normal  0.000000e+00  0.000000e+00  1.000000e+00
   outer loop
     vertex -8.500000e-01  6.000000e-01  8.650000e-01
     vertex -1.500000e+00  6.000000e-01  8.650000e-01
     vertex -8.500000e-01 -6.000000e-01  8.650000e-01
   endloop
 endfacet
 facet normal -9.914449e-01  0.000000e+00  1.305262e-01
   outer loop
     vertex -1.596593e+00  6.000000e-01  7.908819e-01
     vertex -1.600000e+00 -6.000000e-01  7.650000e-01
     vertex -1.596593e+00 -6.000000e-01  7.908819e-01
   endloop
 endfacet
 facet normal -9.914449e-01  0.000000e+00  1.305262e-01
   outer loop
     vertex -1.596593e+00  6.000000e-01  7.908819e-01
     vertex -1.600000e+00  6.000000e-01  7.650000e-01
     vertex -1.600000e+00 -6.000000e-01  7.650000e-01
   endloop
 endfacet
 facet normal -9.238795e-01  0.000000e+00  3.826834e-01
   outer loop
     vertex -1.586603e+00  6.000000e-01  8.150000e-01
     vertex -1.596593e+00 -6.000000e-01  7.908819e-01
     vertex -1.586603e+00 -6.000000e-01  8.150000e-01
   endloop
 endfacet
 facet normal -7.933533e-01  0.000000e+00  6.087614e-01
   outer loop
     vertex -1.586603e+00  6.000000e-01  8.150000e-01
     vertex -1.586603e+00 -6.000000e-01  8.150000e-01
     vertex -1.570711e+00 -6.000000e-01  8.357107e-01
   endloop
 endfacet
 facet normal -9.238795e-01  0.000000e+00  3.826834e-01
   outer loop
     vertex -1.586603e+00  6.000000e-01  8.150000e-01
     vertex -1.596593e+00  6.000000e-01  7.908819e-01
     vertex -1.596593e+00 -6.000000e-01  7.908819e-01
   endloop
 endfacet
 facet normal -6.087614e-01  0.000000e+00  7.933533e-01
   outer loop
     vertex -1.570711e+00  6.000000e-01  8.357107e-01
     vertex -1.570711e+00 -6.000000e-01  8.357107e-01
     vertex -1.550000e+00 -6.000000e-01  8.516025e-01
   endloop
 endfacet
 facet normal -7.933533e-01  0.000000e+00  6.087614e-01
   outer loop
     vertex -1.570711e+00  6.000000e-01  8.357107e-01
     vertex -1.586603e+00  6.000000e-01  8.150000e-01
     vertex -1.570711e+00 -6.000000e-01  8.357107e-01
   endloop
 endfacet
 facet normal -6.087614e-01  0.000000e+00  7.933533e-01
   outer loop
     vertex -1.550000e+00  6.000000e-01  8.516025e-01
     vertex -1.570711e+00  6.000000e-01  8.357107e-01
     vertex -1.550000e+00 -6.000000e-01  8.516025e-01
   endloop
 endfacet
 facet normal -3.826834e-01  0.000000e+00  9.238795e-01
   outer loop
     vertex -1.525882e+00  6.000000e-01  8.615926e-01
     vertex -1.550000e+00 -6.000000e-01  8.516025e-01
     vertex -1.525882e+00 -6.000000e-01  8.615926e-01
   endloop
 endfacet
 facet normal -3.826834e-01  0.000000e+00  9.238795e-01
   outer loop
     vertex -1.525882e+00  6.000000e-01  8.615926e-01
     vertex -1.550000e+00  6.000000e-01  8.516025e-01
     vertex -1.550000e+00 -6.000000e-01  8.516025e-01
   endloop
 endfacet
 facet normal -1.305262e-01  0.000000e+00  9.914449e-01
   outer loop
     vertex -1.500000e+00  6.000000e-01  8.650000e-01
     vertex -1.525882e+00 -6.000000e-01  8.615926e-01
     vertex -1.500000e+00 -6.000000e-01  8.650000e-01
   endloop
 endfacet
 facet normal -1.305262e-01  0.000000e+00  9.914449e-01
   outer loop
     vertex -1.500000e+00  6.000000e-01  8.650000e-01
     vertex -1.525882e+00  6.000000e-01  8.615926e-01
     vertex -1.525882e+00 -6.000000e-01  8.615926e-01
   endloop
 endfacet
 facet normal  1.000000e+00  0.000000e+00  0.000000e+00
   outer loop
     vertex -8.500000e-01 -6.000000e-01  7.650000e-01
     vertex -8.500000e-01  6.000000e-01  7.650000e-01
     vertex -8.500000e-01  6.000000e-01  8.650000e-01
   endloop
 endfacet
 facet normal  1.000000e+00 -0.000000e+00  0.000000e+00
   outer loop
     vertex -8.500000e-01 -6.000000e-01  8.650000e-01
     vertex -8.500000e-01 -6.000000e-01  7.650000e-01
     vertex -8.500000e-01  6.000000e-01  8.650000e-01
   endloop
 endfacet
 facet normal -1.000000e+00 -0.000000e+00 -0.000000e+00
   outer loop
     vertex -1.600000e+00  6.000000e-01  7.650000e-01
     vertex -1.600000e+00  6.000000e-01  1.000000e-01
     vertex -1.600000e+00 -6.000000e-01  1.000000e-01
   endloop
 endfacet
 facet normal -1.000000e+00 -0.000000e+00  0.000000e+00
   outer loop
     vertex -1.600000e+00  6.000000e-01  7.650000e-01
     vertex -1.600000e+00 -6.000000e-01  1.000000e-01
     vertex -1.600000e+00 -6.000000e-01  7.650000e-01
   endloop
 endfacet
 facet normal  0.000000e+00  0.000000e+00 -1.000000e+00
   outer loop
     vertex -8.500000e-01 -6.000000e-01  7.650000e-01
     vertex -1.500000e+00 -6.000000e-01  7.650000e-01
     vertex -1.500000e+00  6.000000e-01  7.650000e-01
   endloop
 endfacet
 facet normal  0.000000e+00  0.000000e+00 -1.000000e+00
   outer loop
     vertex -8.500000e-01 -6.000000e-01  7.650000e-01
     vertex -1.500000e+00  6.000000e-01  7.650000e-01
     vertex -8.500000e-01  6.000000e-01  7.650000e-01
   endloop
 endfacet
 facet normal -1.305262e-01  0.000000e+00 -9.914449e-01
   outer loop
     vertex -1.525882e+00  6.000000e-01  3.407417e-03
     vertex -1.500000e+00 -6.000000e-01 -1.387779e-17
     vertex -1.525882e+00 -6.000000e-01  3.407417e-03
   endloop
 endfacet
 facet normal -1.305262e-01 -0.000000e+00 -9.914449e-01
   outer loop
     vertex -1.525882e+00  6.000000e-01  3.407417e-03
     vertex -1.500000e+00  6.000000e-01 -1.387779e-17
     vertex -1.500000e+00 -6.000000e-01 -1.387779e-17
   endloop
 endfacet
 facet normal -3.826834e-01  0.000000e+00 -9.238795e-01
   outer loop
     vertex -1.550000e+00  6.000000e-01  1.339746e-02
     vertex -1.525882e+00 -6.000000e-01  3.407417e-03
     vertex -1.550000e+00 -6.000000e-01  1.339746e-02
   endloop
 endfacet
 facet normal -6.087614e-01 -0.000000e+00 -7.933533e-01
   outer loop
     vertex -1.550000e+00  6.000000e-01  1.339746e-02
     vertex -1.550000e+00 -6.000000e-01  1.339746e-02
     vertex -1.570711e+00 -6.000000e-01  2.928932e-02
   endloop
 endfacet
 facet normal -3.826834e-01 -0.000000e+00 -9.238795e-01
   outer loop
     vertex -1.550000e+00  6.000000e-01  1.339746e-02
     vertex -1.525882e+00  6.000000e-01  3.407417e-03
     vertex -1.525882e+00 -6.000000e-01  3.407417e-03
   endloop
 endfacet
 facet normal -7.933533e-01 -0.000000e+00 -6.087614e-01
   outer loop
     vertex -1.570711e+00  6.000000e-01  2.928932e-02
     vertex -1.570711e+00 -6.000000e-01  2.928932e-02
     vertex -1.586603e+00 -6.000000e-01  5.000000e-02
   endloop
 endfacet
 facet normal -6.087614e-01  0.000000e+00 -7.933533e-01
   outer loop
     vertex -1.570711e+00  6.000000e-01  2.928932e-02
     vertex -1.550000e+00  6.000000e-01  1.339746e-02
     vertex -1.570711e+00 -6.000000e-01  2.928932e-02
   endloop
 endfacet
 facet normal -9.238795e-01 -0.000000e+00 -3.826834e-01
   outer loop
     vertex -1.586603e+00  6.000000e-01  5.000000e-02
     vertex -1.586603e+00 -6.000000e-01  5.000000e-02
     vertex -1.596593e+00 -6.000000e-01  7.411810e-02
   endloop
 endfacet
 facet normal -7.933533e-01  0.000000e+00 -6.087614e-01
   outer loop
     vertex -1.586603e+00  6.000000e-01  5.000000e-02
     vertex -1.570711e+00  6.000000e-01  2.928932e-02
     vertex -1.586603e+00 -6.000000e-01  5.000000e-02
   endloop
 endfacet
 facet normal -9.238795e-01  0.000000e+00 -3.826834e-01
   outer loop
     vertex -1.596593e+00  6.000000e-01  7.411810e-02
     vertex -1.586603e+00  6.000000e-01  5.000000e-02
     vertex -1.596593e+00 -6.000000e-01  7.411810e-02
   endloop
 endfacet
 facet normal -9.914449e-01  0.000000e+00 -1.305262e-01
   outer loop
     vertex -1.600000e+00  6.000000e-01  1.000000e-01
     vertex -1.596593e+00 -6.000000e-01  7.411810e-02
     vertex -1.600000e+00 -6.000000e-01  1.000000e-01
   endloop
 endfacet
 facet normal -9.914449e-01 -0.000000e+00 -1.305262e-01
   outer loop
     vertex -1.600000e+00  6.000000e-01  1.000000e-01
     vertex -1.596593e+00  6.000000e-01  7.411810e-02
     vertex -1.596593e+00 -6.000000e-01  7.411810e-02
   endloop
 endfacet
 facet normal  1.000000e+00 -0.000000e+00  0.000000e+00
   outer loop
     vertex -1.500000e+00 -6.000000e-01  7.650000e-01
     vertex -1.500000e+00  6.000000e-01  1.000000e-01
     vertex -1.500000e+00  6.000000e-01  7.650000e-01
   endloop
 endfacet
 facet normal  1.000000e+00 -0.000000e+00  0.000000e+00
   outer loop
     vertex -1.500000e+00 -6.000000e-01  7.650000e-01
     vertex -1.500000e+00 -6.000000e-01  1.000000e-01
     vertex -1.500000e+00  6.000000e-01  1.000000e-01
   endloop
 endfacet
 facet normal  1.850372e-17  0.000000e+00 -1.000000e+00
   outer loop
     vertex -1.500000e+00 -6.000000e-01 -1.387779e-17
     vertex -1.500000e+00  6.000000e-01 -1.387779e-17
     vertex -7.500000e-01  6.000000e-01  0.000000e+00
   endloop
 endfacet
 facet normal  1.850372e-17  0.000000e+00 -1.000000e+00
   outer loop
     vertex -7.500000e-01 -6.000000e-01  0.000000e+00
     vertex -1.500000e+00 -6.000000e-01 -1.387779e-17
     vertex -7.500000e-01  6.000000e-01  0.000000e+00
   endloop
 endfacet
 facet normal -0.000000e+00  0.000000e+00  1.000000e+00
   outer loop
     vertex -7.500000e-01  6.000000e-01  1.000000e-01
     vertex -1.500000e+00 -6.000000e-01  1.000000e-01
     vertex -7.500000e-01 -6.000000e-01  1.000000e-01
   endloop
 endfacet
 facet normal  0.000000e+00  0.000000e+00  1.000000e+00
   outer loop
     vertex -7.500000e-01  6.000000e-01  1.000000e-01
     vertex -1.500000e+00  6.000000e-01  1.000000e-01
     vertex -1.500000e+00 -6.000000e-01  1.000000e-01
   endloop
 endfacet
 facet normal  1.000000e+00  0.000000e+00  0.000000e+00
   outer loop
     vertex -7.500000e-01 -6.000000e-01  0.000000e+00
     vertex -7.500000e-01  6.000000e-01  0.000000e+00
     vertex -7.500000e-01  6.000000e-01  1.000000e-01
   endloop
 endfacet
 facet normal  1.000000e+00 -0.000000e+00  0.000000e+00
   outer loop
     vertex -7.500000e-01 -6.000000e-01  1.000000e-01
     vertex -7.500000e-01 -6.000000e-01  0.000000e+00
     vertex -7.500000e-01  6.000000e-01  1.000000e-01
   endloop
 endfacet
 facet normal  0.000000e+00  1.000000e+00  0.000000e+00
   outer loop
     vertex -1.500000e+00  6.000000e-01  1.000000e-01
     vertex -1.500000e+00  6.000000e-01 -1.387779e-17
     vertex -1.525882e+00  6.000000e-01  3.407417e-03
   endloop
 endfacet
 facet normal  0.000000e+00  1.000000e+00  0.000000e+00
   outer loop
     vertex -1.500000e+00  6.000000e-01  1.000000e-01
     vertex -1.525882e+00  6.000000e-01  3.407417e-03
     vertex -1.550000e+00  6.000000e-01  1.339746e-02
   endloop
 endfacet
 facet normal  0.000000e+00  1.000000e+00  0.000000e+00
   outer loop
     vertex -1.500000e+00  6.000000e-01  1.000000e-01
     vertex -1.550000e+00  6.000000e-01  1.339746e-02
     vertex -1.570711e+00  6.000000e-01  2.928932e-02
   endloop
 endfacet
 facet normal  0.000000e+00  1.000000e+00  0.000000e+00
   outer loop
     vertex -1.500000e+00  6.000000e-01  1.000000e-01
     vertex -1.570711e+00  6.000000e-01  2.928932e-02
     vertex -1.586603e+00  6.000000e-01  5.000000e-02
   endloop
 endfacet
 facet normal  0.000000e+00  1.000000e+00  0.000000e+00
   outer loop
     vertex -1.500000e+00  6.000000e-01  1.000000e-01
     vertex -1.586603e+00  6.000000e-01  5.000000e-02
     vertex -1.596593e+00  6.000000e-01  7.411810e-02
   endloop
 endfacet
 facet normal  0.000000e+00  1.000000e+00  0.000000e+00
   outer loop
     vertex -1.500000e+00  6.000000e-01  1.000000e-01
     vertex -1.596593e+00  6.000000e-01  7.411810e-02
     vertex -1.600000e+00  6.000000e-01  1.000000e-01
   endloop
 endfacet
 facet normal  0.000000e+00  1.000000e+00  0.000000e+00
   outer loop
     vertex -1.600000e+00  6.000000e-01  7.650000e-01
     vertex -1.500000e+00  6.000000e-01  1.000000e-01
     vertex -1.600000e+00  6.000000e-01  1.000000e-01
   endloop
 endfacet
 facet normal  0.000000e+00  1.000000e+00 -0.000000e+00
   outer loop
     vertex -1.500000e+00  6.000000e-01  7.650000e-01
     vertex -1.600000e+00  6.000000e-01  7.650000e-01
     vertex -1.596593e+00  6.000000e-01  7.908819e-01
   endloop
 endfacet
 facet normal  0.000000e+00  1.000000e+00 -0.000000e+00
   outer loop
     vertex -1.500000e+00  6.000000e-01  7.650000e-01
     vertex -1.596593e+00  6.000000e-01  7.908819e-01
     vertex -1.586603e+00  6.000000e-01  8.150000e-01
   endloop
 endfacet
 facet normal  0.000000e+00  1.000000e+00 -0.000000e+00
   outer loop
     vertex -1.500000e+00  6.000000e-01  7.650000e-01
     vertex -1.586603e+00  6.000000e-01  8.150000e-01
     vertex -1.570711e+00  6.000000e-01  8.357107e-01
   endloop
 endfacet
 facet normal  0.000000e+00  1.000000e+00  0.000000e+00
   outer loop
     vertex -1.500000e+00  6.000000e-01  7.650000e-01
     vertex -1.500000e+00  6.000000e-01  1.000000e-01
     vertex -1.600000e+00  6.000000e-01  7.650000e-01
   endloop
 endfacet
 facet normal  0.000000e+00  1.000000e+00  0.000000e+00
   outer loop
     vertex -1.550000e+00  6.000000e-01  8.516025e-01
     vertex -1.500000e+00  6.000000e-01  7.650000e-01
     vertex -1.570711e+00  6.000000e-01  8.357107e-01
   endloop
 endfacet
 facet normal  0.000000e+00  1.000000e+00  0.000000e+00
   outer loop
     vertex -1.525882e+00  6.000000e-01  8.615926e-01
     vertex -1.500000e+00  6.000000e-01  7.650000e-01
     vertex -1.550000e+00  6.000000e-01  8.516025e-01
   endloop
 endfacet
 facet normal  0.000000e+00  1.000000e+00  0.000000e+00
   outer loop
     vertex -7.500000e-01  6.000000e-01  1.000000e-01
     vertex -7.500000e-01  6.000000e-01  0.000000e+00
     vertex -1.500000e+00  6.000000e-01 -1.387779e-17
   endloop
 endfacet
 facet normal  0.000000e+00  1.000000e+00 -0.000000e+00
   outer loop
     vertex -7.500000e-01  6.000000e-01  1.000000e-01
     vertex -1.500000e+00  6.000000e-01 -1.387779e-17
     vertex -1.500000e+00  6.000000e-01  1.000000e-01
   endloop
 endfacet
 facet normal  0.000000e+00  1.000000e+00  0.000000e+00
   outer loop
     vertex -1.500000e+00  6.000000e-01  8.650000e-01
     vertex -1.500000e+00  6.000000e-01  7.650000e-01
     vertex -1.525882e+00  6.000000e-01  8.615926e-01
   endloop
 endfacet
 facet normal  0.000000e+00  1.000000e+00  0.000000e+00
   outer loop
     vertex -8.500000e-01  6.000000e-01  8.650000e-01
     vertex -8.500000e-01  6.000000e-01  7.650000e-01
     vertex -1.500000e+00  6.000000e-01  7.650000e-01
   endloop
 endfacet
 facet normal  0.000000e+00  1.000000e+00 -0.000000e+00
   outer loop
     vertex -8.500000e-01  6.000000e-01  8.650000e-01
     vertex -1.500000e+00  6.000000e-01  7.650000e-01
     vertex -1.500000e+00  6.000000e-01  8.650000e-01
   endloop
 endfacet
 facet normal  1.000000e+00  0.000000e+00  0.000000e+00
   outer loop
     vertex  1.600000e+00 -6.000000e-01  1.000000e-01
     vertex  1.600000e+00  6.000000e-01  1.000000e-01
     vertex  1.600000e+00  6.000000e-01  7.650000e-01
   endloop
 endfacet
 facet normal  1.000000e+00 -0.000000e+00  0.000000e+00
   outer loop
     vertex  1.600000e+00 -6.000000e-01  7.650000e-01
     vertex  1.600000e+00 -6.000000e-01  1.000000e-01
     vertex  1.600000e+00  6.000000e-01  7.650000e-01
   endloop
 endfacet
 facet normal  0.000000e+00 -1.000000e+00  0.000000e+00
   outer loop
     vertex  6.500000e-01 -6.000000e-01  1.000000e-01
     vertex  6.500000e-01 -6.000000e-01  0.000000e+00
     vertex  1.500000e+00 -6.000000e-01 -1.387779e-17
   endloop
 endfacet
 facet normal  0.000000e+00 -1.000000e+00  0.000000e+00
   outer loop
     vertex  1.550000e+00 -6.000000e-01  1.339746e-02
     vertex  1.570711e+00 -6.000000e-01  2.928932e-02
     vertex  1.500000e+00 -6.000000e-01  1.000000e-01
   endloop
 endfacet
 facet normal  0.000000e+00 -1.000000e+00  0.000000e+00
   outer loop
     vertex  1.525882e+00 -6.000000e-01  3.407417e-03
     vertex  1.550000e+00 -6.000000e-01  1.339746e-02
     vertex  1.500000e+00 -6.000000e-01  1.000000e-01
   endloop
 endfacet
 facet normal  0.000000e+00 -1.000000e+00  0.000000e+00
   outer loop
     vertex  1.500000e+00 -6.000000e-01 -1.387779e-17
     vertex  1.525882e+00 -6.000000e-01  3.407417e-03
     vertex  1.500000e+00 -6.000000e-01  1.000000e-01
   endloop
 endfacet
 facet normal  0.000000e+00 -1.000000e+00  0.000000e+00
   outer loop
     vertex  6.500000e-01 -6.000000e-01  1.000000e-01
     vertex  1.500000e+00 -6.000000e-01 -1.387779e-17
     vertex  1.500000e+00 -6.000000e-01  1.000000e-01
   endloop
 endfacet
 facet normal  0.000000e+00 -1.000000e+00  0.000000e+00
   outer loop
     vertex  1.500000e+00 -6.000000e-01  1.000000e-01
     vertex  1.570711e+00 -6.000000e-01  2.928932e-02
     vertex  1.586603e+00 -6.000000e-01  5.000000e-02
   endloop
 endfacet
 facet normal  0.000000e+00 -1.000000e+00  0.000000e+00
   outer loop
     vertex  1.500000e+00 -6.000000e-01  1.000000e-01
     vertex  1.586603e+00 -6.000000e-01  5.000000e-02
     vertex  1.596593e+00 -6.000000e-01  7.411810e-02
   endloop
 endfacet
 facet normal  0.000000e+00 -1.000000e+00  0.000000e+00
   outer loop
     vertex  1.500000e+00 -6.000000e-01  1.000000e-01
     vertex  1.596593e+00 -6.000000e-01  7.411810e-02
     vertex  1.600000e+00 -6.000000e-01  1.000000e-01
   endloop
 endfacet
 facet normal  0.000000e+00 -1.000000e+00  0.000000e+00
   outer loop
     vertex  1.500000e+00 -6.000000e-01  7.650000e-01
     vertex  1.500000e+00 -6.000000e-01  1.000000e-01
     vertex  1.600000e+00 -6.000000e-01  7.650000e-01
   endloop
 endfacet
 facet normal  0.000000e+00 -1.000000e+00  0.000000e+00
   outer loop
     vertex  1.500000e+00 -6.000000e-01  1.000000e-01
     vertex  1.600000e+00 -6.000000e-01  1.000000e-01
     vertex  1.600000e+00 -6.000000e-01  7.650000e-01
   endloop
 endfacet
 facet normal  0.000000e+00 -1.000000e+00  0.000000e+00
   outer loop
     vertex  7.500000e-01 -6.000000e-01  7.650000e-01
     vertex  1.500000e+00 -6.000000e-01  7.650000e-01
     vertex  1.500000e+00 -6.000000e-01  8.650000e-01
   endloop
 endfacet
 facet normal  0.000000e+00 -1.000000e+00  0.000000e+00
   outer loop
     vertex  7.500000e-01 -6.000000e-01  8.650000e-01
     vertex  7.500000e-01 -6.000000e-01  7.650000e-01
     vertex  1.500000e+00 -6.000000e-01  8.650000e-01
   endloop
 endfacet
 facet normal  0.000000e+00 -1.000000e+00  0.000000e+00
   outer loop
     vertex  1.500000e+00 -6.000000e-01  8.650000e-01
     vertex  1.500000e+00 -6.000000e-01  7.650000e-01
     vertex  1.525882e+00 -6.000000e-01  8.615926e-01
   endloop
 endfacet
 facet normal  0.000000e+00 -1.000000e+00  0.000000e+00
   outer loop
     vertex  1.500000e+00 -6.000000e-01  7.650000e-01
     vertex  1.600000e+00 -6.000000e-01  7.650000e-01
     vertex  1.596593e+00 -6.000000e-01  7.908819e-01
   endloop
 endfacet
 facet normal  0.000000e+00 -1.000000e+00  0.000000e+00
   outer loop
     vertex  1.500000e+00 -6.000000e-01  7.650000e-01
     vertex  1.596593e+00 -6.000000e-01  7.908819e-01
     vertex  1.586603e+00 -6.000000e-01  8.150000e-01
   endloop
 endfacet
 facet normal  0.000000e+00 -1.000000e+00 -0.000000e+00
   outer loop
     vertex  1.525882e+00 -6.000000e-01  8.615926e-01
     vertex  1.500000e+00 -6.000000e-01  7.650000e-01
     vertex  1.550000e+00 -6.000000e-01  8.516025e-01
   endloop
 endfacet
 facet normal  0.000000e+00 -1.000000e+00  0.000000e+00
   outer loop
     vertex  1.500000e+00 -6.000000e-01  7.650000e-01
     vertex  1.586603e+00 -6.000000e-01  8.150000e-01
     vertex  1.570711e+00 -6.000000e-01  8.357107e-01
   endloop
 endfacet
 facet normal  0.000000e+00 -1.000000e+00 -0.000000e+00
   outer loop
     vertex  1.550000e+00 -6.000000e-01  8.516025e-01
     vertex  1.500000e+00 -6.000000e-01  7.650000e-01
     vertex  1.570711e+00 -6.000000e-01  8.357107e-01
   endloop
 endfacet
 facet normal  9.914449e-01  0.000000e+00 -1.305262e-01
   outer loop
     vertex  1.600000e+00  6.000000e-01  1.000000e-01
     vertex  1.600000e+00 -6.000000e-01  1.000000e-01
     vertex  1.596593e+00 -6.000000e-01  7.411810e-02
   endloop
 endfacet
 facet normal  9.914449e-01  0.000000e+00 -1.305262e-01
   outer loop
     vertex  1.596593e+00  6.000000e-01  7.411810e-02
     vertex  1.600000e+00  6.000000e-01  1.000000e-01
     vertex  1.596593e+00 -6.000000e-01  7.411810e-02
   endloop
 endfacet
 facet normal  9.238795e-01  0.000000e+00 -3.826834e-01
   outer loop
     vertex  1.586603e+00  6.000000e-01  5.000000e-02
     vertex  1.596593e+00 -6.000000e-01  7.411810e-02
     vertex  1.586603e+00 -6.000000e-01  5.000000e-02
   endloop
 endfacet
 facet normal  9.238795e-01  0.000000e+00 -3.826834e-01
   outer loop
     vertex  1.586603e+00  6.000000e-01  5.000000e-02
     vertex  1.596593e+00  6.000000e-01  7.411810e-02
     vertex  1.596593e+00 -6.000000e-01  7.411810e-02
   endloop
 endfacet
 facet normal  7.933533e-01  0.000000e+00 -6.087614e-01
   outer loop
     vertex  1.570711e+00  6.000000e-01  2.928932e-02
     vertex  1.586603e+00 -6.000000e-01  5.000000e-02
     vertex  1.570711e+00 -6.000000e-01  2.928932e-02
   endloop
 endfacet
 facet normal  6.087614e-01  0.000000e+00 -7.933533e-01
   outer loop
     vertex  1.570711e+00  6.000000e-01  2.928932e-02
     vertex  1.570711e+00 -6.000000e-01  2.928932e-02
     vertex  1.550000e+00 -6.000000e-01  1.339746e-02
   endloop
 endfacet
 facet normal  7.933533e-01  0.000000e+00 -6.087614e-01
   outer loop
     vertex  1.570711e+00  6.000000e-01  2.928932e-02
     vertex  1.586603e+00  6.000000e-01  5.000000e-02
     vertex  1.586603e+00 -6.000000e-01  5.000000e-02
   endloop
 endfacet
 facet normal  6.087614e-01  0.000000e+00 -7.933533e-01
   outer loop
     vertex  1.550000e+00  6.000000e-01  1.339746e-02
     vertex  1.570711e+00  6.000000e-01  2.928932e-02
     vertex  1.550000e+00 -6.000000e-01  1.339746e-02
   endloop
 endfacet
 facet normal  3.826834e-01  0.000000e+00 -9.238795e-01
   outer loop
     vertex  1.525882e+00  6.000000e-01  3.407417e-03
     vertex  1.550000e+00 -6.000000e-01  1.339746e-02
     vertex  1.525882e+00 -6.000000e-01  3.407417e-03
   endloop
 endfacet
 facet normal  3.826834e-01  0.000000e+00 -9.238795e-01
   outer loop
     vertex  1.525882e+00  6.000000e-01  3.407417e-03
     vertex  1.550000e+00  6.000000e-01  1.339746e-02
     vertex  1.550000e+00 -6.000000e-01  1.339746e-02
   endloop
 endfacet
 facet normal  1.305262e-01  0.000000e+00 -9.914449e-01
   outer loop
     vertex  1.500000e+00  6.000000e-01 -1.387779e-17
     vertex  1.525882e+00 -6.000000e-01  3.407417e-03
     vertex  1.500000e+00 -6.000000e-01 -1.387779e-17
   endloop
 endfacet
 facet normal  1.305262e-01  0.000000e+00 -9.914449e-01
   outer loop
     vertex  1.500000e+00  6.000000e-01 -1.387779e-17
     vertex  1.525882e+00  6.000000e-01  3.407417e-03
     vertex  1.525882e+00 -6.000000e-01  3.407417e-03
   endloop
 endfacet
 facet normal  9.914449e-01  0.000000e+00  1.305262e-01
   outer loop
     vertex  1.596593e+00 -6.000000e-01  7.908819e-01
     vertex  1.600000e+00 -6.000000e-01  7.650000e-01
     vertex  1.596593e+00  6.000000e-01  7.908819e-01
   endloop
 endfacet
 facet normal  9.914449e-01 -0.000000e+00  1.305262e-01
   outer loop
     vertex  1.600000e+00 -6.000000e-01  7.650000e-01
     vertex  1.600000e+00  6.000000e-01  7.650000e-01
     vertex  1.596593e+00  6.000000e-01  7.908819e-01
   endloop
 endfacet
 facet normal  9.238795e-01  0.000000e+00  3.826834e-01
   outer loop
     vertex  1.586603e+00 -6.000000e-01  8.150000e-01
     vertex  1.596593e+00 -6.000000e-01  7.908819e-01
     vertex  1.586603e+00  6.000000e-01  8.150000e-01
   endloop
 endfacet
 facet normal  7.933533e-01 -0.000000e+00  6.087614e-01
   outer loop
     vertex  1.570711e+00 -6.000000e-01  8.357107e-01
     vertex  1.586603e+00 -6.000000e-01  8.150000e-01
     vertex  1.586603e+00  6.000000e-01  8.150000e-01
   endloop
 endfacet
 facet normal  9.238795e-01 -0.000000e+00  3.826834e-01
   outer loop
     vertex  1.596593e+00 -6.000000e-01  7.908819e-01
     vertex  1.596593e+00  6.000000e-01  7.908819e-01
     vertex  1.586603e+00  6.000000e-01  8.150000e-01
   endloop
 endfacet
 facet normal  6.087614e-01 -0.000000e+00  7.933533e-01
   outer loop
     vertex  1.550000e+00 -6.000000e-01  8.516025e-01
     vertex  1.570711e+00 -6.000000e-01  8.357107e-01
     vertex  1.570711e+00  6.000000e-01  8.357107e-01
   endloop
 endfacet
 facet normal  7.933533e-01  0.000000e+00  6.087614e-01
   outer loop
     vertex  1.570711e+00 -6.000000e-01  8.357107e-01
     vertex  1.586603e+00  6.000000e-01  8.150000e-01
     vertex  1.570711e+00  6.000000e-01  8.357107e-01
   endloop
 endfacet
 facet normal  6.087614e-01  0.000000e+00  7.933533e-01
   outer loop
     vertex  1.550000e+00 -6.000000e-01  8.516025e-01
     vertex  1.570711e+00  6.000000e-01  8.357107e-01
     vertex  1.550000e+00  6.000000e-01  8.516025e-01
   endloop
 endfacet
 facet normal  3.826834e-01  0.000000e+00  9.238795e-01
   outer loop
     vertex  1.525882e+00 -6.000000e-01  8.615926e-01
     vertex  1.550000e+00 -6.000000e-01  8.516025e-01
     vertex  1.525882e+00  6.000000e-01  8.615926e-01
   endloop
 endfacet
 facet normal  3.826834e-01 -0.000000e+00  9.238795e-01
   outer loop
     vertex  1.550000e+00 -6.000000e-01  8.516025e-01
     vertex  1.550000e+00  6.000000e-01  8.516025e-01
     vertex  1.525882e+00  6.000000e-01  8.615926e-01
   endloop
 endfacet
 facet normal  1.305262e-01  0.000000e+00  9.914449e-01
   outer loop
     vertex  1.500000e+00 -6.000000e-01  8.650000e-01
     vertex  1.525882e+00 -6.000000e-01  8.615926e-01
     vertex  1.500000e+00  6.000000e-01  8.650000e-01
   endloop
 endfacet
 facet normal  1.305262e-01 -0.000000e+00  9.914449e-01
   outer loop
     vertex  1.525882e+00 -6.000000e-01  8.615926e-01
     vertex  1.525882e+00  6.000000e-01  8.615926e-01
     vertex  1.500000e+00  6.000000e-01  8.650000e-01
   endloop
 endfacet
 facet normal  0.000000e+00  1.000000e+00 -0.000000e+00
   outer loop
     vertex  1.500000e+00  6.000000e-01 -1.387779e-17
     vertex  6.500000e-01  6.000000e-01  0.000000e+00
     vertex  6.500000e-01  6.000000e-01  1.000000e-01
   endloop
 endfacet
 facet normal  0.000000e+00  1.000000e+00  0.000000e+00
   outer loop
     vertex  1.500000e+00  6.000000e-01  1.000000e-01
     vertex  1.570711e+00  6.000000e-01  2.928932e-02
     vertex  1.550000e+00  6.000000e-01  1.339746e-02
   endloop
 endfacet
 facet normal  0.000000e+00  1.000000e+00  0.000000e+00
   outer loop
     vertex  1.500000e+00  6.000000e-01  1.000000e-01
     vertex  1.550000e+00  6.000000e-01  1.339746e-02
     vertex  1.525882e+00  6.000000e-01  3.407417e-03
   endloop
 endfacet
 facet normal  0.000000e+00  1.000000e+00  0.000000e+00
   outer loop
     vertex  1.500000e+00  6.000000e-01  1.000000e-01
     vertex  1.525882e+00  6.000000e-01  3.407417e-03
     vertex  1.500000e+00  6.000000e-01 -1.387779e-17
   endloop
 endfacet
 facet normal  0.000000e+00  1.000000e+00  0.000000e+00
   outer loop
     vertex  1.500000e+00  6.000000e-01  1.000000e-01
     vertex  1.500000e+00  6.000000e-01 -1.387779e-17
     vertex  6.500000e-01  6.000000e-01  1.000000e-01
   endloop
 endfacet
 facet normal  0.000000e+00  1.000000e+00  0.000000e+00
   outer loop
     vertex  1.586603e+00  6.000000e-01  5.000000e-02
     vertex  1.570711e+00  6.000000e-01  2.928932e-02
     vertex  1.500000e+00  6.000000e-01  1.000000e-01
   endloop
 endfacet
 facet normal  0.000000e+00  1.000000e+00  0.000000e+00
   outer loop
     vertex  1.596593e+00  6.000000e-01  7.411810e-02
     vertex  1.586603e+00  6.000000e-01  5.000000e-02
     vertex  1.500000e+00  6.000000e-01  1.000000e-01
   endloop
 endfacet
 facet normal  0.000000e+00  1.000000e+00  0.000000e+00
   outer loop
     vertex  1.600000e+00  6.000000e-01  1.000000e-01
     vertex  1.596593e+00  6.000000e-01  7.411810e-02
     vertex  1.500000e+00  6.000000e-01  1.000000e-01
   endloop
 endfacet
 facet normal  0.000000e+00  1.000000e+00 -0.000000e+00
   outer loop
     vertex  1.600000e+00  6.000000e-01  7.650000e-01
     vertex  1.500000e+00  6.000000e-01  1.000000e-01
     vertex  1.500000e+00  6.000000e-01  7.650000e-01
   endloop
 endfacet
 facet normal  0.000000e+00  1.000000e+00  0.000000e+00
   outer loop
     vertex  1.600000e+00  6.000000e-01  7.650000e-01
     vertex  1.600000e+00  6.000000e-01  1.000000e-01
     vertex  1.500000e+00  6.000000e-01  1.000000e-01
   endloop
 endfacet
 facet normal  0.000000e+00  1.000000e+00 -0.000000e+00
   outer loop
     vertex  1.500000e+00  6.000000e-01  8.650000e-01
     vertex  7.500000e-01  6.000000e-01  7.650000e-01
     vertex  7.500000e-01  6.000000e-01  8.650000e-01
   endloop
 endfacet
 facet normal  0.000000e+00  1.000000e+00  0.000000e+00
   outer loop
     vertex  1.500000e+00  6.000000e-01  8.650000e-01
     vertex  1.500000e+00  6.000000e-01  7.650000e-01
     vertex  7.500000e-01  6.000000e-01  7.650000e-01
   endloop
 endfacet
 facet normal  0.000000e+00  1.000000e+00  0.000000e+00
   outer loop
     vertex  1.596593e+00  6.000000e-01  7.908819e-01
     vertex  1.600000e+00  6.000000e-01  7.650000e-01
     vertex  1.500000e+00  6.000000e-01  7.650000e-01
   endloop
 endfacet
 facet normal  0.000000e+00  1.000000e+00 -0.000000e+00
   outer loop
     vertex  1.525882e+00  6.000000e-01  8.615926e-01
     vertex  1.500000e+00  6.000000e-01  7.650000e-01
     vertex  1.500000e+00  6.000000e-01  8.650000e-01
   endloop
 endfacet
 facet normal  0.000000e+00  1.000000e+00  0.000000e+00
   outer loop
     vertex  1.586603e+00  6.000000e-01  8.150000e-01
     vertex  1.596593e+00  6.000000e-01  7.908819e-01
     vertex  1.500000e+00  6.000000e-01  7.650000e-01
   endloop
 endfacet
 facet normal  0.000000e+00  1.000000e+00 -0.000000e+00
   outer loop
     vertex  1.550000e+00  6.000000e-01  8.516025e-01
     vertex  1.500000e+00  6.000000e-01  7.650000e-01
     vertex  1.525882e+00  6.000000e-01  8.615926e-01
   endloop
 endfacet
 facet normal  0.000000e+00  1.000000e+00  0.000000e+00
   outer loop
     vertex  1.570711e+00  6.000000e-01  8.357107e-01
     vertex  1.586603e+00  6.000000e-01  8.150000e-01
     vertex  1.500000e+00  6.000000e-01  7.650000e-01
   endloop
 endfacet
 facet normal  0.000000e+00  1.000000e+00 -0.000000e+00
   outer loop
     vertex  1.570711e+00  6.000000e-01  8.357107e-01
     vertex  1.500000e+00  6.000000e-01  7.650000e-01
     vertex  1.550000e+00  6.000000e-01  8.516025e-01
   endloop
 endfacet
 facet normal -1.632681e-17  0.000000e+00 -1.000000e+00
   outer loop
     vertex  6.500000e-01 -6.000000e-01  0.000000e+00
     vertex  6.500000e-01  6.000000e-01  0.000000e+00
     vertex  1.500000e+00  6.000000e-01 -1.387779e-17
   endloop
 endfacet
 facet normal -1.632681e-17  0.000000e+00 -1.000000e+00
   outer loop
     vertex  1.500000e+00 -6.000000e-01 -1.387779e-17
     vertex  6.500000e-01 -6.000000e-01  0.000000e+00
     vertex  1.500000e+00  6.000000e-01 -1.387779e-17
   endloop
 endfacet
 facet normal -1.000000e+00 -0.000000e+00 -0.000000e+00
   outer loop
     vertex  6.500000e-01  6.000000e-01  1.000000e-01
     vertex  6.500000e-01  6.000000e-01  0.000000e+00
     vertex  6.500000e-01 -6.000000e-01  0.000000e+00
   endloop
 endfacet
 facet normal -1.000000e+00 -0.000000e+00  0.000000e+00
   outer loop
     vertex  6.500000e-01  6.000000e-01  1.000000e-01
     vertex  6.500000e-01 -6.000000e-01  0.000000e+00
     vertex  6.500000e-01 -6.000000e-01  1.000000e-01
   endloop
 endfacet
 facet normal  0.000000e+00  0.000000e+00  1.000000e+00
   outer loop
     vertex  1.500000e+00  6.000000e-01  1.000000e-01
     vertex  6.500000e-01  6.000000e-01  1.000000e-01
     vertex  6.500000e-01 -6.000000e-01  1.000000e-01
   endloop
 endfacet
 facet normal -0.000000e+00  0.000000e+00  1.000000e+00
   outer loop
     vertex  1.500000e+00  6.000000e-01  1.000000e-01
     vertex  6.500000e-01 -6.000000e-01  1.000000e-01
     vertex  1.500000e+00 -6.000000e-01  1.000000e-01
   endloop
 endfacet
 facet normal -1.000000e+00 -0.000000e+00 -0.000000e+00
   outer loop
     vertex  1.500000e+00  6.000000e-01  7.650000e-01
     vertex  1.500000e+00  6.000000e-01  1.000000e-01
     vertex  1.500000e+00 -6.000000e-01  7.650000e-01
   endloop
 endfacet
 facet normal -1.000000e+00  0.000000e+00  0.000000e+00
   outer loop
     vertex  1.500000e+00  6.000000e-01  1.000000e-01
     vertex  1.500000e+00 -6.000000e-01  1.000000e-01
     vertex  1.500000e+00 -6.000000e-01  7.650000e-01
   endloop
 endfacet
 facet normal  0.000000e+00 -0.000000e+00  1.000000e+00
   outer loop
     vertex  7.500000e-01 -6.000000e-01  8.650000e-01
     vertex  1.500000e+00 -6.000000e-01  8.650000e-01
     vertex  7.500000e-01  6.000000e-01  8.650000e-01
   endloop
 endfacet
 facet normal  0.000000e+00 -0.000000e+00  1.000000e+00
   outer loop
     vertex  1.500000e+00 -6.000000e-01  8.650000e-01
     vertex  1.500000e+00  6.000000e-01  8.650000e-01
     vertex  7.500000e-01  6.000000e-01  8.650000e-01
   endloop
 endfacet
 facet normal  0.000000e+00  0.000000e+00 -1.000000e+00
   outer loop
     vertex  7.500000e-01 -6.000000e-01  7.650000e-01
     vertex  7.500000e-01  6.000000e-01  7.650000e-01
     vertex  1.500000e+00  6.000000e-01  7.650000e-01
   endloop
 endfacet
 facet normal  0.000000e+00  0.000000e+00 -1.000000e+00
   outer loop
     vertex  1.500000e+00 -6.000000e-01  7.650000e-01
     vertex  7.500000e-01 -6.000000e-01  7.650000e-01
     vertex  1.500000e+00  6.000000e-01  7.650000e-01
   endloop
 endfacet
 facet normal -1.000000e+00 -0.000000e+00 -0.000000e+00
   outer loop
     vertex  7.500000e-01  6.000000e-01  8.650000e-01
     vertex  7.500000e-01  6.000000e-01  7.650000e-01
     vertex  7.500000e-01 -6.000000e-01  7.650000e-01
   endloop
 endfacet
 facet normal -1.000000e+00 -0.000000e+00  0.000000e+00
   outer loop
     vertex  7.500000e-01  6.000000e-01  8.650000e-01
     vertex  7.500000e-01 -6.000000e-01  7.650000e-01
     vertex  7.500000e-01 -6.000000e-01  8.650000e-01
   endloop
 endfacet
endsolid
