solid
 facet normal -1.000000e+00 -0.000000e+00 -0.000000e+00
   outer loop
     vertex -1.600000e+00  8.000000e-01  2.000000e+00
     vertex -1.600000e+00  8.000000e-01  0.000000e+00
     vertex -1.600000e+00 -8.000000e-01  2.000000e+00
   endloop
 endfacet
 facet normal -1.000000e+00  0.000000e+00  0.000000e+00
   outer loop
     vertex -1.600000e+00  8.000000e-01  0.000000e+00
     vertex -1.600000e+00 -8.000000e-01  0.000000e+00
     vertex -1.600000e+00 -8.000000e-01  2.000000e+00
   endloop
 endfacet
 facet normal  1.000000e+00 -0.000000e+00  0.000000e+00
   outer loop
     vertex -8.000000e-01 -8.000000e-01  2.000000e+00
     vertex -8.000000e-01  8.000000e-01  0.000000e+00
     vertex -8.000000e-01  8.000000e-01  2.000000e+00
   endloop
 endfacet
 facet normal  1.000000e+00 -0.000000e+00  0.000000e+00
   outer loop
     vertex -8.000000e-01 -8.000000e-01  2.000000e+00
     vertex -8.000000e-01 -8.000000e-01  0.000000e+00
     vertex -8.000000e-01  8.000000e-01  0.000000e+00
   endloop
 endfacet
 facet normal  0.000000e+00 -1.000000e+00  0.000000e+00
   outer loop
     vertex -1.600000e+00 -8.000000e-01  0.000000e+00
     vertex -8.000000e-01 -8.000000e-01  0.000000e+00
     vertex -1.600000e+00 -8.000000e-01  2.000000e+00
   endloop
 endfacet
 facet normal  0.000000e+00 -1.000000e+00  0.000000e+00
   outer loop
     vertex -1.600000e+00 -8.000000e-01  2.000000e+00
     vertex -8.000000e-01 -8.000000e-01  0.000000e+00
     vertex -8.000000e-01 -8.000000e-01  2.000000e+00
   endloop
 endfacet
 facet normal  0.000000e+00  1.000000e+00  0.000000e+00
   outer loop
     vertex -1.600000e+00  8.000000e-01  2.000000e+00
     vertex -8.000000e-01  8.000000e-01  0.000000e+00
     vertex -1.600000e+00  8.000000e-01  0.000000e+00
   endloop
 endfacet
 facet normal  0.000000e+00  1.000000e+00  0.000000e+00
   outer loop
     vertex -8.000000e-01  8.000000e-01  2.000000e+00
     vertex -8.000000e-01  8.000000e-01  0.000000e+00
     vertex -1.600000e+00  8.000000e-01  2.000000e+00
   endloop
 endfacet
 facet normal  0.000000e+00  0.000000e+00 -1.000000e+00
   outer loop
     vertex -1.600000e+00 -8.000000e-01  0.000000e+00
     vertex -1.600000e+00  8.000000e-01  0.000000e+00
     vertex -8.000000e-01  8.000000e-01  0.000000e+00
   endloop
 endfacet
 facet normal  0.000000e+00  0.000000e+00 -1.000000e+00
   outer loop
     vertex -8.000000e-01 -8.000000e-01  0.000000e+00
     vertex -1.600000e+00 -8.000000e-01  0.000000e+00
     vertex -8.000000e-01  8.000000e-01  0.000000e+00
   endloop
 endfacet
 facet normal  0.000000e+00  0.000000e+00  1.000000e+00
   outer loop
     vertex -8.000000e-01  8.000000e-01  2.000000e+00
     vertex -1.600000e+00  8.000000e-01  2.000000e+00
     vertex -1.600000e+00 -8.000000e-01  2.000000e+00
   endloop
 endfacet
 facet normal -0.000000e+00  0.000000e+00  1.000000e+00
   outer loop
     vertex -8.000000e-01  8.000000e-01  2.000000e+00
     vertex -1.600000e+00 -8.000000e-01  2.000000e+00
     vertex -8.000000e-01 -8.000000e-01  2.000000e+00
   endloop
 endfacet
 facet normal -1.000000e+00 -0.000000e+00 -0.000000e+00
   outer loop
     vertex  8.000000e-01  8.000000e-01  2.000000e+00
     vertex  8.000000e-01  8.000000e-01  0.000000e+00
     vertex  8.000000e-01 -8.000000e-01  2.000000e+00
   endloop
 endfacet
 facet normal -1.000000e+00  0.000000e+00  0.000000e+00
   outer loop
     vertex  8.000000e-01  8.000000e-01  0.000000e+00
     vertex  8.000000e-01 -8.000000e-01  0.000000e+00
     vertex  8.000000e-01 -8.000000e-01  2.000000e+00
   endloop
 endfacet
 facet normal  1.000000e+00 -0.000000e+00  0.000000e+00
   outer loop
     vertex  1.600000e+00 -8.000000e-01  2.000000e+00
     vertex  1.600000e+00  8.000000e-01  0.000000e+00
     vertex  1.600000e+00  8.000000e-01  2.000000e+00
   endloop
 endfacet
 facet normal  1.000000e+00 -0.000000e+00  0.000000e+00
   outer loop
     vertex  1.600000e+00 -8.000000e-01  2.000000e+00
     vertex  1.600000e+00 -8.000000e-01  0.000000e+00
     vertex  1.600000e+00  8.000000e-01  0.000000e+00
   endloop
 endfacet
 facet normal  0.000000e+00 -1.000000e+00  0.000000e+00
   outer loop
     vertex  8.000000e-01 -8.000000e-01  0.000000e+00
     vertex  1.600000e+00 -8.000000e-01  0.000000e+00
     vertex  8.000000e-01 -8.000000e-01  2.000000e+00
   endloop
 endfacet
 facet normal  0.000000e+00 -1.000000e+00  0.000000e+00
   outer loop
     vertex  8.000000e-01 -8.000000e-01  2.000000e+00
     vertex  1.600000e+00 -8.000000e-01  0.000000e+00
     vertex  1.600000e+00 -8.000000e-01  2.000000e+00
   endloop
 endfacet
 facet normal  0.000000e+00  1.000000e+00  0.000000e+00
   outer loop
     vertex  8.000000e-01  8.000000e-01  2.000000e+00
     vertex  1.600000e+00  8.000000e-01  0.000000e+00
     vertex  8.000000e-01  8.000000e-01  0.000000e+00
   endloop
 endfacet
 facet normal  0.000000e+00  1.000000e+00  0.000000e+00
   outer loop
     vertex  1.600000e+00  8.000000e-01  2.000000e+00
     vertex  1.600000e+00  8.000000e-01  0.000000e+00
     vertex  8.000000e-01  8.000000e-01  2.000000e+00
   endloop
 endfacet
 facet normal  0.000000e+00  0.000000e+00 -1.000000e+00
   outer loop
     vertex  8.000000e-01 -8.000000e-01  0.000000e+00
     vertex  8.000000e-01  8.000000e-01  0.000000e+00
     vertex  1.600000e+00  8.000000e-01  0.000000e+00
   endloop
 endfacet
 facet normal  0.000000e+00  0.000000e+00 -1.000000e+00
   outer loop
     vertex  1.600000e+00 -8.000000e-01  0.000000e+00
     vertex  8.000000e-01 -8.000000e-01  0.000000e+00
     vertex  1.600000e+00  8.000000e-01  0.000000e+00
   endloop
 endfacet
 facet normal  0.000000e+00  0.000000e+00  1.000000e+00
   outer loop
     vertex  1.600000e+00  8.000000e-01  2.000000e+00
     vertex  8.000000e-01  8.000000e-01  2.000000e+00
     vertex  8.000000e-01 -8.000000e-01  2.000000e+00
   endloop
 endfacet
 facet normal -0.000000e+00  0.000000e+00  1.000000e+00
   outer loop
     vertex  1.600000e+00  8.000000e-01  2.000000e+00
     vertex  8.000000e-01 -8.000000e-01  2.000000e+00
     vertex  1.600000e+00 -8.000000e-01  2.000000e+00
   endloop
 endfacet
 facet normal -1.000000e+00  0.000000e+00  0.000000e+00
   outer loop
     vertex -8.000000e-01  7.840000e-01  2.000000e-02
     vertex -8.000000e-01 -7.840000e-01  2.000000e-02
     vertex -8.000000e-01  7.840000e-01  1.980000e+00
   endloop
 endfacet
 facet normal -1.000000e+00 -0.000000e+00  0.000000e+00
   outer loop
     vertex -8.000000e-01  7.840000e-01  1.980000e+00
     vertex -8.000000e-01 -7.840000e-01  2.000000e-02
     vertex -8.000000e-01 -7.840000e-01  1.980000e+00
   endloop
 endfacet
 facet normal  1.000000e+00 -0.000000e+00  0.000000e+00
   outer loop
     vertex  8.000000e-01  7.840000e-01  1.980000e+00
     vertex  8.000000e-01 -7.840000e-01  2.000000e-02
     vertex  8.000000e-01  7.840000e-01  2.000000e-02
   endloop
 endfacet
 facet normal  1.000000e+00 -0.000000e+00  0.000000e+00
   outer loop
     vertex  8.000000e-01 -7.840000e-01  1.980000e+00
     vertex  8.000000e-01 -7.840000e-01  2.000000e-02
     vertex  8.000000e-01  7.840000e-01  1.980000e+00
   endloop
 endfacet
 facet normal  0.000000e+00 -1.000000e+00  0.000000e+00
   outer loop
     vertex -8.000000e-01 -7.840000e-01  2.000000e-02
     vertex  8.000000e-01 -7.840000e-01  2.000000e-02
     vertex  8.000000e-01 -7.840000e-01  1.980000e+00
   endloop
 endfacet
 facet normal  0.000000e+00 -1.000000e+00  0.000000e+00
   outer loop
     vertex -8.000000e-01 -7.840000e-01  1.980000e+00
     vertex -8.000000e-01 -7.840000e-01  2.000000e-02
     vertex  8.000000e-01 -7.840000e-01  1.980000e+00
   endloop
 endfacet
 facet normal  0.000000e+00  1.000000e+00  0.000000e+00
   outer loop
     vertex  8.000000e-01  7.840000e-01  1.980000e+00
     vertex  8.000000e-01  7.840000e-01  2.000000e-02
     vertex -8.000000e-01  7.840000e-01  2.000000e-02
   endloop
 endfacet
 facet normal  0.000000e+00  1.000000e+00 -0.000000e+00
   outer loop
     vertex  8.000000e-01  7.840000e-01  1.980000e+00
     vertex -8.000000e-01  7.840000e-01  2.000000e-02
     vertex -8.000000e-01  7.840000e-01  1.980000e+00
   endloop
 endfacet
 facet normal  0.000000e+00  0.000000e+00 -1.000000e+00
   outer loop
     vertex -8.000000e-01 -7.840000e-01  2.000000e-02
     vertex -8.000000e-01  7.840000e-01  2.000000e-02
     vertex  8.000000e-01  7.840000e-01  2.000000e-02
   endloop
 endfacet
 facet normal  0.000000e+00  0.000000e+00 -1.000000e+00
   outer loop
     vertex  8.000000e-01 -7.840000e-01  2.000000e-02
     vertex -8.000000e-01 -7.840000e-01  2.000000e-02
     vertex  8.000000e-01  7.840000e-01  2.000000e-02
   endloop
 endfacet
 facet normal  0.000000e+00  0.000000e+00  1.000000e+00
   outer loop
     vertex  8.000000e-01  7.840000e-01  1.980000e+00
     vertex -8.000000e-01  7.840000e-01  1.980000e+00
     vertex -8.000000e-01 -7.840000e-01  1.980000e+00
   endloop
 endfacet
 facet normal -0.000000e+00  0.000000e+00  1.000000e+00
   outer loop
     vertex  8.000000e-01  7.840000e-01  1.980000e+00
     vertex -8.000000e-01 -7.840000e-01  1.980000e+00
     vertex  8.000000e-01 -7.840000e-01  1.980000e+00
   endloop
 endfacet
endsolid
